# xmcd
#
# Track frame offsets:
#	150
#	12750
#	28502
#	38812
#	57015
#	72820
#	85855
#	96040
#	110172
#	126860
#	148840
#	162940
#	177965
#	189725
#
# Disc length: 2742 seconds
#
# Revision: 1
# Processed by: cddbd v1.5.1PL0 Copyright (c) Steve Scherf et al.
# Submitted via: EasyCDDAExtractor 6.0.0.1
#
DISCID=ba0ab40e
DTITLE=Chitãozinho and Xororo - BIS
DYEAR=1900
DGENRE=
TTITLE0=O Homem do Campo
TTITLE1=Minha Amiga
TTITLE2=Mulher de Ninguém
TTITLE3=Majestade o Sabia
TTITLE4=Sera Que Eu Sou
TTITLE5=Nosso Filho Com Quem Vai Ficar
TTITLE6=Professora do Desprezo
TTITLE7=Matriz ou Filial
TTITLE8=Marcados
TTITLE9=O Que Mais Você Quer de Mim
TTITLE10=Vida e Saudade
TTITLE11=Tenho Ciumes de Tudo
TTITLE12=Moço Pobre
TTITLE13=Adeus Amor
EXTD=
EXTT0=
EXTT1=
EXTT2=
EXTT3=
EXTT4=
EXTT5=
EXTT6=
EXTT7=
EXTT8=
EXTT9=
EXTT10=
EXTT11=
EXTT12=
EXTT13=
PLAYORDER=
